<svg id="visual" viewBox="0 0 900 600" width="900" height="600" xmlns="http://www.w3.org/2000/svg" xmlns:xlink="http://www.w3.org/1999/xlink" version="1.1"><rect x="0" y="0" width="900" height="600" fill="#001220"></rect><defs><linearGradient id="grad1_0" x1="33.3%" y1="100%" x2="100%" y2="0%"><stop offset="20%" stop-color="#fbae3c" stop-opacity="1"></stop><stop offset="80%" stop-color="#fbae3c" stop-opacity="1"></stop></linearGradient></defs><defs><linearGradient id="grad1_1" x1="33.3%" y1="100%" x2="100%" y2="0%"><stop offset="20%" stop-color="#fbae3c" stop-opacity="1"></stop><stop offset="80%" stop-color="#f48350" stop-opacity="1"></stop></linearGradient></defs><defs><linearGradient id="grad1_2" x1="33.3%" y1="100%" x2="100%" y2="0%"><stop offset="20%" stop-color="#d96162" stop-opacity="1"></stop><stop offset="80%" stop-color="#f48350" stop-opacity="1"></stop></linearGradient></defs><defs><linearGradient id="grad1_3" x1="33.3%" y1="100%" x2="100%" y2="0%"><stop offset="20%" stop-color="#d96162" stop-opacity="1"></stop><stop offset="80%" stop-color="#af4b6d" stop-opacity="1"></stop></linearGradient></defs><defs><linearGradient id="grad1_4" x1="33.3%" y1="100%" x2="100%" y2="0%"><stop offset="20%" stop-color="#7c3e6b" stop-opacity="1"></stop><stop offset="80%" stop-color="#af4b6d" stop-opacity="1"></stop></linearGradient></defs><defs><linearGradient id="grad1_5" x1="33.3%" y1="100%" x2="100%" y2="0%"><stop offset="20%" stop-color="#7c3e6b" stop-opacity="1"></stop><stop offset="80%" stop-color="#49335c" stop-opacity="1"></stop></linearGradient></defs><defs><linearGradient id="grad1_6" x1="33.3%" y1="100%" x2="100%" y2="0%"><stop offset="20%" stop-color="#1d2540" stop-opacity="1"></stop><stop offset="80%" stop-color="#49335c" stop-opacity="1"></stop></linearGradient></defs><defs><linearGradient id="grad1_7" x1="33.3%" y1="100%" x2="100%" y2="0%"><stop offset="20%" stop-color="#1d2540" stop-opacity="1"></stop><stop offset="80%" stop-color="#001220" stop-opacity="1"></stop></linearGradient></defs><defs><linearGradient id="grad2_0" x1="0%" y1="100%" x2="66.7%" y2="0%"><stop offset="20%" stop-color="#fbae3c" stop-opacity="1"></stop><stop offset="80%" stop-color="#fbae3c" stop-opacity="1"></stop></linearGradient></defs><defs><linearGradient id="grad2_1" x1="0%" y1="100%" x2="66.7%" y2="0%"><stop offset="20%" stop-color="#f48350" stop-opacity="1"></stop><stop offset="80%" stop-color="#fbae3c" stop-opacity="1"></stop></linearGradient></defs><defs><linearGradient id="grad2_2" x1="0%" y1="100%" x2="66.7%" y2="0%"><stop offset="20%" stop-color="#f48350" stop-opacity="1"></stop><stop offset="80%" stop-color="#d96162" stop-opacity="1"></stop></linearGradient></defs><defs><linearGradient id="grad2_3" x1="0%" y1="100%" x2="66.7%" y2="0%"><stop offset="20%" stop-color="#af4b6d" stop-opacity="1"></stop><stop offset="80%" stop-color="#d96162" stop-opacity="1"></stop></linearGradient></defs><defs><linearGradient id="grad2_4" x1="0%" y1="100%" x2="66.7%" y2="0%"><stop offset="20%" stop-color="#af4b6d" stop-opacity="1"></stop><stop offset="80%" stop-color="#7c3e6b" stop-opacity="1"></stop></linearGradient></defs><defs><linearGradient id="grad2_5" x1="0%" y1="100%" x2="66.7%" y2="0%"><stop offset="20%" stop-color="#49335c" stop-opacity="1"></stop><stop offset="80%" stop-color="#7c3e6b" stop-opacity="1"></stop></linearGradient></defs><defs><linearGradient id="grad2_6" x1="0%" y1="100%" x2="66.7%" y2="0%"><stop offset="20%" stop-color="#49335c" stop-opacity="1"></stop><stop offset="80%" stop-color="#1d2540" stop-opacity="1"></stop></linearGradient></defs><defs><linearGradient id="grad2_7" x1="0%" y1="100%" x2="66.7%" y2="0%"><stop offset="20%" stop-color="#001220" stop-opacity="1"></stop><stop offset="80%" stop-color="#1d2540" stop-opacity="1"></stop></linearGradient></defs><g transform="translate(900, 600)"><path d="M-486.7 0C-438 -44.7 -389.2 -89.3 -374.2 -155C-359.1 -220.7 -377.7 -307.4 -344.2 -344.2C-310.6 -381 -224.9 -368 -158.8 -383.4C-92.8 -398.9 -46.4 -442.8 0 -486.7L0 0Z" fill="#0c1c30"></path><path d="M-425.9 0C-383.2 -39.1 -340.6 -78.1 -327.4 -135.6C-314.2 -193.1 -330.5 -268.9 -301.2 -301.2C-271.8 -333.4 -196.8 -322 -139 -335.5C-81.2 -349 -40.6 -387.5 0 -425.9L0 0Z" fill="#312c4f"></path><path d="M-365.1 0C-328.5 -33.5 -291.9 -67 -280.6 -116.2C-269.3 -165.5 -283.3 -230.5 -258.1 -258.1C-233 -285.8 -168.7 -276 -119.1 -287.6C-69.6 -299.1 -34.8 -332.1 0 -365.1L0 0Z" fill="#623965"></path><path d="M-304.2 0C-273.7 -27.9 -243.3 -55.8 -233.9 -96.9C-224.4 -137.9 -236.1 -192.1 -215.1 -215.1C-194.1 -238.1 -140.5 -230 -99.3 -239.6C-58 -249.3 -29 -276.8 0 -304.2L0 0Z" fill="#96446e"></path><path d="M-243.4 0C-219 -22.3 -194.6 -44.7 -187.1 -77.5C-179.6 -110.3 -188.9 -153.7 -172.1 -172.1C-155.3 -190.5 -112.4 -184 -79.4 -191.7C-46.4 -199.4 -23.2 -221.4 0 -243.4L0 0Z" fill="#c55469"></path><path d="M-182.5 0C-164.2 -16.7 -146 -33.5 -140.3 -58.1C-134.7 -82.7 -141.7 -115.3 -129.1 -129.1C-116.5 -142.9 -84.3 -138 -59.6 -143.8C-34.8 -149.6 -17.4 -166.1 0 -182.5L0 0Z" fill="#e9705a"></path><path d="M-121.7 0C-109.5 -11.2 -97.3 -22.3 -93.5 -38.7C-89.8 -55.2 -94.4 -76.8 -86 -86C-77.7 -95.3 -56.2 -92 -39.7 -95.9C-23.2 -99.7 -11.6 -110.7 0 -121.7L0 0Z" fill="#fa9845"></path><path d="M-60.8 0C-54.7 -5.6 -48.7 -11.2 -46.8 -19.4C-44.9 -27.6 -47.2 -38.4 -43 -43C-38.8 -47.6 -28.1 -46 -19.9 -47.9C-11.6 -49.9 -5.8 -55.4 0 -60.8L0 0Z" fill="#fbae3c"></path></g><g transform="translate(0, 0)"><path d="M486.7 0C459.8 53.7 432.8 107.4 414.8 171.8C396.9 236.3 387.9 311.6 344.2 344.2C300.5 376.8 222 366.8 158.8 383.4C95.7 400.1 47.8 443.4 0 486.7L0 0Z" fill="#0c1c30"></path><path d="M425.9 0C402.3 47 378.7 93.9 363 150.3C347.2 206.8 339.4 272.6 301.2 301.2C262.9 329.7 194.2 320.9 139 335.5C83.7 350.1 41.8 388 0 425.9L0 0Z" fill="#312c4f"></path><path d="M365.1 0C344.8 40.3 324.6 80.5 311.1 128.9C297.6 177.2 290.9 233.7 258.1 258.1C225.3 282.6 166.5 275.1 119.1 287.6C71.7 300 35.9 332.6 0 365.1L0 0Z" fill="#623965"></path><path d="M304.2 0C287.4 33.5 270.5 67.1 259.3 107.4C248 147.7 242.4 194.7 215.1 215.1C187.8 235.5 138.7 229.2 99.3 239.6C59.8 250 29.9 277.1 0 304.2L0 0Z" fill="#96446e"></path><path d="M243.4 0C229.9 26.8 216.4 53.7 207.4 85.9C198.4 118.1 194 155.8 172.1 172.1C150.2 188.4 111 183.4 79.4 191.7C47.8 200 23.9 221.7 0 243.4L0 0Z" fill="#c55469"></path><path d="M182.5 0C172.4 20.1 162.3 40.3 155.6 64.4C148.8 88.6 145.5 116.8 129.1 129.1C112.7 141.3 83.2 137.5 59.6 143.8C35.9 150 17.9 166.3 0 182.5L0 0Z" fill="#e9705a"></path><path d="M121.7 0C114.9 13.4 108.2 26.8 103.7 43C99.2 59.1 97 77.9 86 86C75.1 94.2 55.5 91.7 39.7 95.9C23.9 100 12 110.9 0 121.7L0 0Z" fill="#fa9845"></path><path d="M60.8 0C57.5 6.7 54.1 13.4 51.9 21.5C49.6 29.5 48.5 38.9 43 43C37.6 47.1 27.7 45.8 19.9 47.9C12 50 6 55.4 0 60.8L0 0Z" fill="#fbae3c"></path></g></svg>