<svg id="visual" viewBox="0 0 900 600" width="900" height="600" xmlns="http://www.w3.org/2000/svg" xmlns:xlink="http://www.w3.org/1999/xlink" version="1.1"><rect x="0" y="0" width="900" height="600" fill="#001220"></rect><defs><linearGradient id="grad1_0" x1="33.3%" y1="100%" x2="100%" y2="0%"><stop offset="20%" stop-color="#fbae3c" stop-opacity="1"></stop><stop offset="80%" stop-color="#fbae3c" stop-opacity="1"></stop></linearGradient></defs><defs><linearGradient id="grad1_1" x1="33.3%" y1="100%" x2="100%" y2="0%"><stop offset="20%" stop-color="#fbae3c" stop-opacity="1"></stop><stop offset="80%" stop-color="#f48350" stop-opacity="1"></stop></linearGradient></defs><defs><linearGradient id="grad1_2" x1="33.3%" y1="100%" x2="100%" y2="0%"><stop offset="20%" stop-color="#d96162" stop-opacity="1"></stop><stop offset="80%" stop-color="#f48350" stop-opacity="1"></stop></linearGradient></defs><defs><linearGradient id="grad1_3" x1="33.3%" y1="100%" x2="100%" y2="0%"><stop offset="20%" stop-color="#d96162" stop-opacity="1"></stop><stop offset="80%" stop-color="#af4b6d" stop-opacity="1"></stop></linearGradient></defs><defs><linearGradient id="grad1_4" x1="33.3%" y1="100%" x2="100%" y2="0%"><stop offset="20%" stop-color="#7c3e6b" stop-opacity="1"></stop><stop offset="80%" stop-color="#af4b6d" stop-opacity="1"></stop></linearGradient></defs><defs><linearGradient id="grad1_5" x1="33.3%" y1="100%" x2="100%" y2="0%"><stop offset="20%" stop-color="#7c3e6b" stop-opacity="1"></stop><stop offset="80%" stop-color="#49335c" stop-opacity="1"></stop></linearGradient></defs><defs><linearGradient id="grad1_6" x1="33.3%" y1="100%" x2="100%" y2="0%"><stop offset="20%" stop-color="#1d2540" stop-opacity="1"></stop><stop offset="80%" stop-color="#49335c" stop-opacity="1"></stop></linearGradient></defs><defs><linearGradient id="grad1_7" x1="33.3%" y1="100%" x2="100%" y2="0%"><stop offset="20%" stop-color="#1d2540" stop-opacity="1"></stop><stop offset="80%" stop-color="#001220" stop-opacity="1"></stop></linearGradient></defs><defs><linearGradient id="grad2_0" x1="0%" y1="100%" x2="66.7%" y2="0%"><stop offset="20%" stop-color="#fbae3c" stop-opacity="1"></stop><stop offset="80%" stop-color="#fbae3c" stop-opacity="1"></stop></linearGradient></defs><defs><linearGradient id="grad2_1" x1="0%" y1="100%" x2="66.7%" y2="0%"><stop offset="20%" stop-color="#f48350" stop-opacity="1"></stop><stop offset="80%" stop-color="#fbae3c" stop-opacity="1"></stop></linearGradient></defs><defs><linearGradient id="grad2_2" x1="0%" y1="100%" x2="66.7%" y2="0%"><stop offset="20%" stop-color="#f48350" stop-opacity="1"></stop><stop offset="80%" stop-color="#d96162" stop-opacity="1"></stop></linearGradient></defs><defs><linearGradient id="grad2_3" x1="0%" y1="100%" x2="66.7%" y2="0%"><stop offset="20%" stop-color="#af4b6d" stop-opacity="1"></stop><stop offset="80%" stop-color="#d96162" stop-opacity="1"></stop></linearGradient></defs><defs><linearGradient id="grad2_4" x1="0%" y1="100%" x2="66.7%" y2="0%"><stop offset="20%" stop-color="#af4b6d" stop-opacity="1"></stop><stop offset="80%" stop-color="#7c3e6b" stop-opacity="1"></stop></linearGradient></defs><defs><linearGradient id="grad2_5" x1="0%" y1="100%" x2="66.7%" y2="0%"><stop offset="20%" stop-color="#49335c" stop-opacity="1"></stop><stop offset="80%" stop-color="#7c3e6b" stop-opacity="1"></stop></linearGradient></defs><defs><linearGradient id="grad2_6" x1="0%" y1="100%" x2="66.7%" y2="0%"><stop offset="20%" stop-color="#49335c" stop-opacity="1"></stop><stop offset="80%" stop-color="#1d2540" stop-opacity="1"></stop></linearGradient></defs><defs><linearGradient id="grad2_7" x1="0%" y1="100%" x2="66.7%" y2="0%"><stop offset="20%" stop-color="#001220" stop-opacity="1"></stop><stop offset="80%" stop-color="#1d2540" stop-opacity="1"></stop></linearGradient></defs><g transform="translate(900, 600)"><path d="M-486.7 0C-482.6 -65.7 -478.5 -131.3 -449.7 -186.3C-420.9 -241.2 -367.4 -285.4 -315.4 -315.4C-263.3 -345.3 -212.7 -360.9 -160.3 -387.1C-108 -413.3 -54 -450 0 -486.7L0 0Z" fill="#0c1c30"></path><path d="M-425.9 0C-422.3 -57.5 -418.7 -114.9 -393.5 -163C-368.3 -211.1 -321.5 -249.8 -275.9 -275.9C-230.4 -302.1 -186.1 -315.8 -140.3 -338.7C-94.5 -361.6 -47.3 -393.8 0 -425.9L0 0Z" fill="#312c4f"></path><path d="M-365.1 0C-362 -49.2 -358.9 -98.5 -337.3 -139.7C-315.7 -180.9 -275.6 -214.1 -236.5 -236.5C-197.5 -259 -159.5 -270.7 -120.3 -290.3C-81 -310 -40.5 -337.5 0 -365.1L0 0Z" fill="#623965"></path><path d="M-304.2 0C-301.6 -41 -299.1 -82.1 -281.1 -116.4C-263.1 -150.8 -229.6 -178.4 -197.1 -197.1C-164.6 -215.8 -132.9 -225.6 -100.2 -241.9C-67.5 -258.3 -33.8 -281.3 0 -304.2L0 0Z" fill="#96446e"></path><path d="M-243.4 0C-241.3 -32.8 -239.2 -65.7 -224.8 -93.1C-210.4 -120.6 -183.7 -142.7 -157.7 -157.7C-131.7 -172.6 -106.3 -180.5 -80.2 -193.6C-54 -206.6 -27 -225 0 -243.4L0 0Z" fill="#c55469"></path><path d="M-182.5 0C-181 -24.6 -179.4 -49.2 -168.6 -69.9C-157.8 -90.5 -137.8 -107 -118.3 -118.3C-98.7 -129.5 -79.8 -135.3 -60.1 -145.2C-40.5 -155 -20.3 -168.8 0 -182.5L0 0Z" fill="#e9705a"></path><path d="M-121.7 0C-120.7 -16.4 -119.6 -32.8 -112.4 -46.6C-105.2 -60.3 -91.9 -71.4 -78.8 -78.8C-65.8 -86.3 -53.2 -90.2 -40.1 -96.8C-27 -103.3 -13.5 -112.5 0 -121.7L0 0Z" fill="#fa9845"></path><path d="M-60.8 0C-60.3 -8.2 -59.8 -16.4 -56.2 -23.3C-52.6 -30.2 -45.9 -35.7 -39.4 -39.4C-32.9 -43.2 -26.6 -45.1 -20 -48.4C-13.5 -51.7 -6.8 -56.3 0 -60.8L0 0Z" fill="#fbae3c"></path></g><g transform="translate(0, 0)"><path d="M486.7 0C440.8 47.6 394.9 95.1 377.9 156.5C360.8 217.9 372.6 293.2 344.2 344.2C315.7 395.2 247 421.9 182.9 441.6C118.8 461.3 59.4 474 0 486.7L0 0Z" fill="#0c1c30"></path><path d="M425.9 0C385.7 41.6 345.6 83.2 330.6 137C315.7 190.7 326.1 256.5 301.2 301.2C276.3 345.8 216.1 369.2 160.1 386.4C104 403.7 52 414.8 0 425.9L0 0Z" fill="#312c4f"></path><path d="M365.1 0C330.6 35.7 296.2 71.3 283.4 117.4C270.6 163.4 279.5 219.9 258.1 258.1C236.8 296.4 185.2 316.4 137.2 331.2C89.1 346 44.6 355.5 0 365.1L0 0Z" fill="#623965"></path><path d="M304.2 0C275.5 29.7 246.8 59.4 236.2 97.8C225.5 136.2 232.9 183.2 215.1 215.1C197.3 247 154.4 263.7 114.3 276C74.3 288.3 37.1 296.3 0 304.2L0 0Z" fill="#96446e"></path><path d="M243.4 0C220.4 23.8 197.5 47.6 188.9 78.3C180.4 109 186.3 146.6 172.1 172.1C157.9 197.6 123.5 210.9 91.5 220.8C59.4 230.7 29.7 237 0 243.4L0 0Z" fill="#c55469"></path><path d="M182.5 0C165.3 17.8 148.1 35.7 141.7 58.7C135.3 81.7 139.7 109.9 129.1 129.1C118.4 148.2 92.6 158.2 68.6 165.6C44.6 173 22.3 177.8 0 182.5L0 0Z" fill="#e9705a"></path><path d="M121.7 0C110.2 11.9 98.7 23.8 94.5 39.1C90.2 54.5 93.2 73.3 86 86C78.9 98.8 61.7 105.5 45.7 110.4C29.7 115.3 14.9 118.5 0 121.7L0 0Z" fill="#fa9845"></path><path d="M60.8 0C55.1 5.9 49.4 11.9 47.2 19.6C45.1 27.2 46.6 36.6 43 43C39.5 49.4 30.9 52.7 22.9 55.2C14.9 57.7 7.4 59.3 0 60.8L0 0Z" fill="#fbae3c"></path></g></svg>