<svg id="visual" viewBox="0 0 900 600" width="900" height="600" xmlns="http://www.w3.org/2000/svg" xmlns:xlink="http://www.w3.org/1999/xlink" version="1.1"><rect x="0" y="0" width="900" height="600" fill="#001220"></rect><defs><linearGradient id="grad1_0" x1="33.3%" y1="100%" x2="100%" y2="0%"><stop offset="20%" stop-color="#fbae3c" stop-opacity="1"></stop><stop offset="80%" stop-color="#fbae3c" stop-opacity="1"></stop></linearGradient></defs><defs><linearGradient id="grad1_1" x1="33.3%" y1="100%" x2="100%" y2="0%"><stop offset="20%" stop-color="#fbae3c" stop-opacity="1"></stop><stop offset="80%" stop-color="#f48350" stop-opacity="1"></stop></linearGradient></defs><defs><linearGradient id="grad1_2" x1="33.3%" y1="100%" x2="100%" y2="0%"><stop offset="20%" stop-color="#d96162" stop-opacity="1"></stop><stop offset="80%" stop-color="#f48350" stop-opacity="1"></stop></linearGradient></defs><defs><linearGradient id="grad1_3" x1="33.3%" y1="100%" x2="100%" y2="0%"><stop offset="20%" stop-color="#d96162" stop-opacity="1"></stop><stop offset="80%" stop-color="#af4b6d" stop-opacity="1"></stop></linearGradient></defs><defs><linearGradient id="grad1_4" x1="33.3%" y1="100%" x2="100%" y2="0%"><stop offset="20%" stop-color="#7c3e6b" stop-opacity="1"></stop><stop offset="80%" stop-color="#af4b6d" stop-opacity="1"></stop></linearGradient></defs><defs><linearGradient id="grad1_5" x1="33.3%" y1="100%" x2="100%" y2="0%"><stop offset="20%" stop-color="#7c3e6b" stop-opacity="1"></stop><stop offset="80%" stop-color="#49335c" stop-opacity="1"></stop></linearGradient></defs><defs><linearGradient id="grad1_6" x1="33.3%" y1="100%" x2="100%" y2="0%"><stop offset="20%" stop-color="#1d2540" stop-opacity="1"></stop><stop offset="80%" stop-color="#49335c" stop-opacity="1"></stop></linearGradient></defs><defs><linearGradient id="grad1_7" x1="33.3%" y1="100%" x2="100%" y2="0%"><stop offset="20%" stop-color="#1d2540" stop-opacity="1"></stop><stop offset="80%" stop-color="#001220" stop-opacity="1"></stop></linearGradient></defs><defs><linearGradient id="grad2_0" x1="0%" y1="100%" x2="66.7%" y2="0%"><stop offset="20%" stop-color="#fbae3c" stop-opacity="1"></stop><stop offset="80%" stop-color="#fbae3c" stop-opacity="1"></stop></linearGradient></defs><defs><linearGradient id="grad2_1" x1="0%" y1="100%" x2="66.7%" y2="0%"><stop offset="20%" stop-color="#f48350" stop-opacity="1"></stop><stop offset="80%" stop-color="#fbae3c" stop-opacity="1"></stop></linearGradient></defs><defs><linearGradient id="grad2_2" x1="0%" y1="100%" x2="66.7%" y2="0%"><stop offset="20%" stop-color="#f48350" stop-opacity="1"></stop><stop offset="80%" stop-color="#d96162" stop-opacity="1"></stop></linearGradient></defs><defs><linearGradient id="grad2_3" x1="0%" y1="100%" x2="66.7%" y2="0%"><stop offset="20%" stop-color="#af4b6d" stop-opacity="1"></stop><stop offset="80%" stop-color="#d96162" stop-opacity="1"></stop></linearGradient></defs><defs><linearGradient id="grad2_4" x1="0%" y1="100%" x2="66.7%" y2="0%"><stop offset="20%" stop-color="#af4b6d" stop-opacity="1"></stop><stop offset="80%" stop-color="#7c3e6b" stop-opacity="1"></stop></linearGradient></defs><defs><linearGradient id="grad2_5" x1="0%" y1="100%" x2="66.7%" y2="0%"><stop offset="20%" stop-color="#49335c" stop-opacity="1"></stop><stop offset="80%" stop-color="#7c3e6b" stop-opacity="1"></stop></linearGradient></defs><defs><linearGradient id="grad2_6" x1="0%" y1="100%" x2="66.7%" y2="0%"><stop offset="20%" stop-color="#49335c" stop-opacity="1"></stop><stop offset="80%" stop-color="#1d2540" stop-opacity="1"></stop></linearGradient></defs><defs><linearGradient id="grad2_7" x1="0%" y1="100%" x2="66.7%" y2="0%"><stop offset="20%" stop-color="#001220" stop-opacity="1"></stop><stop offset="80%" stop-color="#1d2540" stop-opacity="1"></stop></linearGradient></defs><g transform="translate(900, 600)"><path d="M-486.7 0C-476.3 -60.9 -465.9 -121.9 -445.3 -184.5C-424.8 -247 -394.1 -311.3 -344.2 -344.2C-294.3 -377.1 -225.1 -378.7 -164.6 -397.3C-104 -415.8 -52 -451.3 0 -486.7L0 0Z" fill="#0c1c30"></path><path d="M-425.9 0C-416.8 -53.3 -407.6 -106.6 -389.6 -161.4C-371.7 -216.2 -344.8 -272.4 -301.2 -301.2C-257.5 -330 -197 -331.4 -144 -347.6C-91 -363.8 -45.5 -394.9 0 -425.9L0 0Z" fill="#312c4f"></path><path d="M-365.1 0C-357.2 -45.7 -349.4 -91.4 -334 -138.3C-318.6 -185.3 -295.6 -233.4 -258.1 -258.1C-220.7 -282.8 -168.8 -284 -123.4 -298C-78 -311.9 -39 -338.5 0 -365.1L0 0Z" fill="#623965"></path><path d="M-304.2 0C-297.7 -38.1 -291.2 -76.2 -278.3 -115.3C-265.5 -154.4 -246.3 -194.5 -215.1 -215.1C-183.9 -235.7 -140.7 -236.7 -102.8 -248.3C-65 -259.9 -32.5 -282.1 0 -304.2L0 0Z" fill="#96446e"></path><path d="M-243.4 0C-238.2 -30.5 -232.9 -60.9 -222.7 -92.2C-212.4 -123.5 -197 -155.6 -172.1 -172.1C-147.1 -188.6 -112.6 -189.4 -82.3 -198.6C-52 -207.9 -26 -225.6 0 -243.4L0 0Z" fill="#c55469"></path><path d="M-182.5 0C-178.6 -22.9 -174.7 -45.7 -167 -69.2C-159.3 -92.6 -147.8 -116.7 -129.1 -129.1C-110.4 -141.4 -84.4 -142 -61.7 -149C-39 -155.9 -19.5 -169.2 0 -182.5L0 0Z" fill="#e9705a"></path><path d="M-121.7 0C-119.1 -15.2 -116.5 -30.5 -111.3 -46.1C-106.2 -61.8 -98.5 -77.8 -86 -86C-73.6 -94.3 -56.3 -94.7 -41.1 -99.3C-26 -104 -13 -112.8 0 -121.7L0 0Z" fill="#fa9845"></path><path d="M-60.8 0C-59.5 -7.6 -58.2 -15.2 -55.7 -23.1C-53.1 -30.9 -49.3 -38.9 -43 -43C-36.8 -47.1 -28.1 -47.3 -20.6 -49.7C-13 -52 -6.5 -56.4 0 -60.8L0 0Z" fill="#fbae3c"></path></g><g transform="translate(0, 0)"><path d="M486.7 0C454.7 53.4 422.7 106.7 403.7 167.2C384.8 227.7 378.9 295.4 344.2 344.2C309.5 393 245.9 422.8 183.7 443.5C121.5 464.1 60.8 475.4 0 486.7L0 0Z" fill="#0c1c30"></path><path d="M425.9 0C397.9 46.7 369.9 93.4 353.3 146.3C336.7 199.3 331.6 258.5 301.2 301.2C270.8 343.8 215.1 370 160.7 388C106.3 406.1 53.2 416 0 425.9L0 0Z" fill="#312c4f"></path><path d="M365.1 0C341 40 317 80 302.8 125.4C288.6 170.8 284.2 221.6 258.1 258.1C232.1 294.7 184.4 317.1 137.8 332.6C91.1 348.1 45.6 356.6 0 365.1L0 0Z" fill="#623965"></path><path d="M304.2 0C284.2 33.4 264.2 66.7 252.3 104.5C240.5 142.3 236.8 184.6 215.1 215.1C193.4 245.6 153.7 264.3 114.8 277.2C75.9 290 38 297.1 0 304.2L0 0Z" fill="#96446e"></path><path d="M243.4 0C227.4 26.7 211.3 53.4 201.9 83.6C192.4 113.9 189.5 147.7 172.1 172.1C154.7 196.5 122.9 211.4 91.8 221.7C60.8 232 30.4 237.7 0 243.4L0 0Z" fill="#c55469"></path><path d="M182.5 0C170.5 20 158.5 40 151.4 62.7C144.3 85.4 142.1 110.8 129.1 129.1C116 147.4 92.2 158.6 68.9 166.3C45.6 174 22.8 178.3 0 182.5L0 0Z" fill="#e9705a"></path><path d="M121.7 0C113.7 13.3 105.7 26.7 100.9 41.8C96.2 56.9 94.7 73.9 86 86C77.4 98.2 61.5 105.7 45.9 110.9C30.4 116 15.2 118.9 0 121.7L0 0Z" fill="#fa9845"></path><path d="M60.8 0C56.8 6.7 52.8 13.3 50.5 20.9C48.1 28.5 47.4 36.9 43 43C38.7 49.1 30.7 52.9 23 55.4C15.2 58 7.6 59.4 0 60.8L0 0Z" fill="#fbae3c"></path></g></svg>