<svg id="visual" viewBox="0 0 900 600" width="900" height="600" xmlns="http://www.w3.org/2000/svg" xmlns:xlink="http://www.w3.org/1999/xlink" version="1.1"><rect x="0" y="0" width="900" height="600" fill="#001220">
</rect><defs>
<linearGradient id="grad1_0" x1="33.3%" y1="0%" x2="100%" y2="100%"><stop offset="20%" stop-color="#fbae3c" stop-opacity="1"></stop><stop offset="80%" stop-color="#fbae3c" stop-opacity="1"></stop></linearGradient></defs><defs>
<linearGradient id="grad1_1" x1="33.3%" y1="0%" x2="100%" y2="100%"><stop offset="20%" stop-color="#fbae3c" stop-opacity="1"></stop><stop offset="80%" stop-color="#f17c53" stop-opacity="1"></stop></linearGradient></defs><defs>
<linearGradient id="grad1_2" x1="33.3%" y1="0%" x2="100%" y2="100%"><stop offset="20%" stop-color="#cc5867" stop-opacity="1"></stop><stop offset="80%" stop-color="#f17c53" stop-opacity="1"></stop></linearGradient></defs><defs>
<linearGradient id="grad1_3" x1="33.3%" y1="0%" x2="100%" y2="100%"><stop offset="20%" stop-color="#cc5867" stop-opacity="1"></stop><stop offset="80%" stop-color="#96446e" stop-opacity="1"></stop></linearGradient></defs><defs>
<linearGradient id="grad1_4" x1="33.3%" y1="0%" x2="100%" y2="100%"><stop offset="20%" stop-color="#593762" stop-opacity="1"></stop><stop offset="80%" stop-color="#96446e" stop-opacity="1"></stop></linearGradient></defs><defs>
<linearGradient id="grad1_5" x1="33.3%" y1="0%" x2="100%" y2="100%"><stop offset="20%" stop-color="#593762" stop-opacity="1"></stop><stop offset="80%" stop-color="#232745" stop-opacity="1"></stop></linearGradient></defs><defs>
<linearGradient id="grad1_6" x1="33.3%" y1="0%" x2="100%" y2="100%"><stop offset="20%" stop-color="#001220" stop-opacity="1"></stop><stop offset="80%" stop-color="#232745" stop-opacity="1"></stop></linearGradient></defs><defs>
<linearGradient id="grad2_0" x1="0%" y1="0%" x2="66.7%" y2="100%"><stop offset="20%" stop-color="#fbae3c" stop-opacity="1"></stop><stop offset="80%" stop-color="#fbae3c" stop-opacity="1"></stop></linearGradient></defs><defs>
<linearGradient id="grad2_1" x1="0%" y1="0%" x2="66.7%" y2="100%"><stop offset="20%" stop-color="#f17c53" stop-opacity="1"></stop><stop offset="80%" stop-color="#fbae3c" stop-opacity="1"></stop></linearGradient></defs><defs>
<linearGradient id="grad2_2" x1="0%" y1="0%" x2="66.7%" y2="100%"><stop offset="20%" stop-color="#f17c53" stop-opacity="1"></stop><stop offset="80%" stop-color="#cc5867" stop-opacity="1"></stop></linearGradient></defs><defs>
<linearGradient id="grad2_3" x1="0%" y1="0%" x2="66.7%" y2="100%"><stop offset="20%" stop-color="#96446e" stop-opacity="1"></stop><stop offset="80%" stop-color="#cc5867" stop-opacity="1"></stop></linearGradient></defs><defs>
<linearGradient id="grad2_4" x1="0%" y1="0%" x2="66.7%" y2="100%"><stop offset="20%" stop-color="#96446e" stop-opacity="1"></stop><stop offset="80%" stop-color="#593762" stop-opacity="1"></stop></linearGradient></defs><defs>
<linearGradient id="grad2_5" x1="0%" y1="0%" x2="66.7%" y2="100%"><stop offset="20%" stop-color="#232745" stop-opacity="1"></stop><stop offset="80%" stop-color="#593762" stop-opacity="1"></stop></linearGradient></defs><defs>
<linearGradient id="grad2_6" x1="0%" y1="0%" x2="66.7%" y2="100%"><stop offset="20%" stop-color="#232745" stop-opacity="1"></stop><stop offset="80%" stop-color="#001220" stop-opacity="1"></stop></linearGradient></defs>
<g transform="translate(900, 0)">
<path d="M0 486.7C-50.3 451.4 -100.6 416.1 -165.3 399.1C-230 382.2 -309 383.6 -344.2 344.2C-379.3 304.8 -370.7 224.5 -387.1 160.3C-403.6 96.2 -445.2 48.1 -486.7 0L0 0Z" fill="#0f1d33"></path>
<path d="M0 417.2C-43.1 386.9 -86.3 356.6 -141.7 342.1C-197.1 327.6 -264.9 328.8 -295 295C-325.2 261.2 -317.7 192.4 -331.8 137.4C-345.9 82.4 -381.6 41.2 -417.2 0L0 0Z" fill="#3d3056"></path><path d="M0 347.7C-35.9 322.4 -71.9 297.2 -118.1 285.1C-164.3 273 -220.7 274 -245.8 245.8C-271 217.7 -264.8 160.4 -276.5 114.5C-288.3 68.7 -318 34.3 -347.7 0L0 0Z" fill="#773d6b"></path>
<path d="M0 278.1C-28.8 257.9 -57.5 237.8 -94.5 228.1C-131.4 218.4 -176.6 219.2 -196.7 196.7C-216.8 174.2 -211.8 128.3 -221.2 91.6C-230.6 55 -254.4 27.5 -278.1 0L0 0Z" fill="#b34c6d"></path><path d="M0 208.6C-21.6 193.5 -43.1 178.3 -70.9 171C-98.6 163.8 -132.4 164.4 -147.5 147.5C-162.6 130.6 -158.9 96.2 -165.9 68.7C-173 41.2 -190.8 20.6 -208.6 0L0 0Z" fill="#e1685e"></path>
<path d="M0 139.1C-14.4 129 -28.8 118.9 -47.2 114C-65.7 109.2 -88.3 109.6 -98.3 98.3C-108.4 87.1 -105.9 64.1 -110.6 45.8C-115.3 27.5 -127.2 13.7 -139.1 0L0 0Z" fill="#f99447"></path><path d="M0 69.5C-7.2 64.5 -14.4 59.4 -23.6 57C-32.9 54.6 -44.1 54.8 -49.2 49.2C-54.2 43.5 -53 32.1 -55.3 22.9C-57.7 13.7 -63.6 6.9 -69.5 0L0 0Z" fill="#fbae3c"></path></g><g transform="translate(0, 600)">
<path d="M0 -486.7C51.7 -445.1 103.3 -403.4 156.9 -378.8C210.5 -354.2 266 -346.8 318.9 -318.9C371.8 -291.1 422.2 -242.8 449.7 -186.3C477.2 -129.7 482 -64.9 486.7 0L0 0Z" fill="#0f1d33"></path><path d="M0 -417.2C44.3 -381.5 88.6 -345.7 134.5 -324.7C180.4 -303.6 228 -297.2 273.3 -273.3C318.7 -249.5 361.8 -208.1 385.5 -159.7C409.1 -111.2 413.1 -55.6 417.2 0L0 0Z" fill="#3d3056"></path>
<path d="M0 -347.7C36.9 -317.9 73.8 -288.1 112.1 -270.6C150.3 -253 190 -247.7 227.8 -227.8C265.6 -207.9 301.5 -173.4 321.2 -133.1C340.9 -92.7 344.3 -46.3 347.7 0L0 0Z" fill="#773d6b"></path><path d="M0 -278.1C29.5 -254.3 59 -230.5 89.7 -216.5C120.3 -202.4 152 -198.1 182.2 -182.2C212.5 -166.3 241.2 -138.8 257 -106.4C272.7 -74.1 275.4 -37.1 278.1 0L0 0Z" fill="#b34c6d"></path>
<path d="M0 -208.6C22.1 -190.7 44.3 -172.9 67.2 -162.3C90.2 -151.8 114 -148.6 136.7 -136.7C159.4 -124.7 180.9 -104.1 192.7 -79.8C204.5 -55.6 206.6 -27.8 208.6 0L0 0Z" fill="#e1685e"></path><path d="M0 -139.1C14.8 -127.2 29.5 -115.2 44.8 -108.2C60.1 -101.2 76 -99.1 91.1 -91.1C106.2 -83.2 120.6 -69.4 128.5 -53.2C136.4 -37.1 137.7 -18.5 139.1 0L0 0Z" fill="#f99447"></path>
<path d="M0 -69.5C7.4 -63.6 14.8 -57.6 22.4 -54.1C30.1 -50.6 38 -49.5 45.6 -45.6C53.1 -41.6 60.3 -34.7 64.2 -26.6C68.2 -18.5 68.9 -9.3 69.5 0L0 0Z" fill="#fbae3c"></path>
</g></svg>